<svg version="1.2" xmlns="http://www.w3.org/2000/svg" viewBox="0 0 2083 2083" width="2000" height="2000"><style>tspan{white-space:pre}.a{fill:none;stroke:#000;stroke-miterlimit:100;stroke-width:145}</style><path class="a" d="m1041.5 2010.5c-535.8 0-969-433.1-969-969 0-535.8 433.2-969 969-969 535.9 0 969 433.2 969 969 0 535.9-433.1 969-969 969z"/><path  d="m969 260h145.8v1562.5h-145.8z"/><path  d="m824 1041l-295 352v-173.5l148.5-178.5-148.5-175.5v-174.5z"/><path  d="m1364 1120c57.4 0 104 46.6 104 104 0 57.4-46.6 104-104 104-57.4 0-104-46.6-104-104 0-57.4 46.6-104 104-104z"/><path  d="m1364 759c57.4 0 104 46.6 104 104 0 57.4-46.6 104-104 104-57.4 0-104-46.6-104-104 0-57.4 46.6-104 104-104z"/></svg>